<?xml version="1.0" encoding="utf-8" ?>
<svg xmlns="http://www.w3.org/2000/svg" xmlns:xlink="http://www.w3.org/1999/xlink" width="512" height="512">
	<defs>
		<linearGradient id="gradient_0" gradientUnits="userSpaceOnUse" x1="578.17401" y1="536.92499" x2="313.23099" y2="327.29401">
			<stop offset="0" stop-color="#08040B"/>
			<stop offset="1" stop-color="#5F2484"/>
		</linearGradient>
	</defs>
	<path fill="url(#gradient_0)" transform="scale(0.666667 0.666667)" d="M210.313 158.736L210.584 158.434C212.653 156.652 215.287 155.155 217.633 153.757C225.634 148.988 234.468 145.692 243.696 144.312C254.76 142.658 266.009 143.717 277.14 143.739L337.02 143.734L428.292 143.346C441.479 143.357 454.986 142.79 468.13 143.547L497.766 143.731C506.182 143.733 514.828 143.385 523.199 144.318C538.857 146.062 553.805 152.905 565.036 164.01C576.032 174.883 583.209 189.41 585.974 204.582C587.966 215.514 587.859 227.234 587.87 238.312L587.547 520.436L587.097 542.883C586.875 548.52 586.693 554.492 585.774 560.062C583.184 575.758 576.372 590.982 565.118 602.365C557.215 610.359 545.677 617.287 534.463 619.16C528.638 620.133 521.743 620.199 515.812 620.197L497.596 620.27L251.132 620.029C245.812 620.005 240.181 619.988 234.938 619.072C221.954 616.805 210.042 610.119 200.87 600.732C182.445 581.873 181.875 557.305 181.858 532.666L181.928 499.944L181.868 484.477L181.861 454.765L182.101 354.135L182.32 256.079L182.349 225.818C182.355 219.617 182.183 213.348 182.634 207.16C183.11 200.642 184.816 192.927 187.967 187.133C191.689 176.472 201.382 165.414 210.313 158.736ZM210.313 158.736C201.382 165.414 191.689 176.472 187.967 187.133C184.816 192.927 183.11 200.642 182.634 207.16C182.183 213.348 182.355 219.617 182.349 225.818L182.32 256.079L182.101 354.135L181.861 454.765L181.868 484.477L181.928 499.944L182.496 499.423L182.809 498.75C183.208 497.925 183.083 497.257 183.018 496.362L182.985 495.938L183.938 495.75C184.057 495.13 184.202 494.838 184.594 494.344L185.248 494.531L185.438 493.875C185.582 493.296 185.568 493.166 185.965 492.656C186.398 492.1 186.312 491.942 186.375 491.25C186.753 490.805 186.939 490.555 187.096 489.979C187.499 488.5 188.506 487.775 189.562 486.75C189.645 486.323 189.698 486.061 189.955 485.701C192.031 482.795 193.379 479.307 195.656 476.531L198.75 472.5L199.594 471.469C200.144 470.523 200.947 470.062 201.469 469.219C202.272 467.921 201.131 469.166 202.289 468.023C202.681 467.637 202.916 467.395 203.221 466.916C203.801 466.004 204.693 465.248 205.219 464.344C205.887 463.194 205.048 464.13 205.98 463.195L206.965 462.141L207.375 461.625L208.219 460.594L208.5 459.938C209.34 459.577 210.051 458.805 210.469 457.969C210.912 457.083 211.534 456.836 211.969 456.094C212.519 455.155 213.324 454.683 213.844 453.844C214.287 453.127 214.965 452.614 215.344 451.969C215.928 450.972 215.297 451.617 215.964 450.95C216.624 450.29 217.211 449.851 217.594 448.969C218.125 447.742 219.174 447.379 219.844 446.344C220.396 445.49 221.229 444.885 221.719 444.094C223.405 441.37 225.094 440.695 227.719 439.219C228.069 438.402 227.859 438.68 228.486 438.053L228.938 437.625C229.02 436.998 229.123 436.864 229.541 436.354L229.969 435.844C230.498 434.973 230.785 434.651 231.561 433.969L232.507 434.285C231.55 427.268 232.35 420.111 232.476 413.062L233.583 362.773C230.593 366.532 226.212 371.027 221.273 371.923C218.058 372.506 213.678 372.163 211.045 370.123C209.068 368.591 207.518 366.121 207.307 363.611C206.937 359.204 207.213 354.544 207.225 350.113L207.248 339.744C207.279 336.385 207.094 331.487 209.447 328.815C211.302 326.709 213.836 326.182 216.523 326.04C219.489 325.884 223.321 326.244 225.562 328.394C227.016 329.788 228.056 331.774 228.069 333.814C228.079 335.345 227.527 336.923 226.456 338.03C224.876 339.664 222.291 339.508 220.158 339.531C219.133 346.256 219.986 353.87 219.813 360.715C223.347 358.292 226.286 355.132 229.019 351.858C231.496 348.891 233.97 345.869 235.744 342.418C239.31 335.481 240.197 327.841 241.637 320.304L245.547 301.5C246.798 295.379 248.047 288.771 252.565 284.14C256.279 280.332 260.902 278.33 265.969 276.896C277.428 273.653 289.93 272.995 301.727 271.68C324.803 269.108 347.861 266.449 371.098 266.096C369.954 265.614 368.545 265.727 367.312 265.704L367.312 265.316C368.298 265.3 369.275 265.272 370.254 265.408L370.875 265.5L371.719 264.844L372.094 265.031L372.75 264.562C372.299 264.475 372.047 264.419 371.666 264.146C371.134 263.767 371.5 263.954 370.688 263.625C370.082 263.379 369.85 263.35 369.375 262.875C369.959 262.291 370.65 261.909 371.344 261.469L371.812 261.75C372.185 261.181 372.305 260.894 372.404 260.197L372.469 259.594L372.844 259.781L373.781 259.219C374.668 259.229 375.532 259.268 376.383 258.984C377.659 258.559 379.273 258.743 380.625 258.75L381.094 258.377C381.745 258.374 381.429 258.455 382.031 258.094L380.719 257.906C381.669 257.801 382.558 257.574 383.48 257.336C391.141 256.953 399.171 257.901 406.869 258.116C429.494 258.748 452.357 259.771 474.75 263.26L509.478 270.207C509.742 266.518 510.551 259.847 508.312 256.764C504.237 254.72 498.597 254.373 494.121 253.677L443.822 248.26L406.216 245.261L383.677 245.276C383.982 244.368 384.001 244.814 383.625 243.938L382.688 243.75C382.571 243.447 382.312 242.945 382.312 242.625L382.406 241.969L382.031 242.156L381.75 241.688L382.875 241.125C383.4 240.858 383.836 240.6 384.41 240.457L384.75 240.375L385.312 240C385.614 239.819 385.996 239.695 386.25 239.438C386.996 238.681 386.935 237.981 387 237C387.406 236.391 387.864 235.819 388.043 235.102L388.125 234.75C388.469 234.062 388.973 233.631 389.168 232.852L389.25 232.5L389.625 231.938L390.281 230.906L393.469 226.594C394.038 225.616 393.435 226.229 394.083 225.582C394.649 225.015 395.182 224.58 395.619 223.893C396.126 223.097 395.663 223.692 396.328 222.879L401.344 216.469C401.958 215.413 401.247 216.167 402.04 215.375C402.696 214.718 403.38 214.17 403.883 213.378C404.455 212.481 405.326 211.733 405.844 210.844C406.294 210.069 406.945 209.649 407.344 208.969C408.026 207.805 407.159 208.768 408.105 207.82C409.173 206.751 410.033 205.533 411 204.375L411.844 203.344C412.394 202.398 413.197 201.937 413.719 201.094C414.501 199.831 413.438 200.989 414.48 199.945C415.12 199.304 415.936 198.534 416.344 197.719C416.74 196.926 416.43 197.237 416.93 196.727C418.416 195.215 420.157 193.17 421.219 191.344C421.861 190.239 422.826 189.713 423.469 188.719C423.903 188.047 424.607 187.461 424.969 186.844C425.494 185.948 424.986 186.428 425.507 185.907C426.082 185.333 426.502 184.993 426.844 184.219C427.323 183.132 428.157 182.875 428.719 181.969C429.501 180.706 428.439 181.864 429.48 180.82C430.951 179.347 433.428 176.675 434.344 174.844C434.787 173.958 435.409 173.711 435.844 172.969C436.294 172.202 436.947 171.769 437.344 171.094C437.794 170.327 438.447 169.894 438.844 169.219C439.526 168.055 438.659 169.018 439.605 168.07C440.367 167.308 440.981 166.491 441.656 165.656L445.219 160.969C445.738 159.93 446.543 159.608 447.094 158.719C447.509 158.048 447.675 157.504 448.406 157.031C450.43 155.722 452.075 153.807 453.794 152.074C454.574 151.287 455.635 150.436 456.116 149.426C456.592 148.43 457.361 147.643 457.875 146.625L457.219 145.781L457.688 145.125L458.344 145.406C459.244 144.866 459.774 145.576 460.5 145.309C460.748 145.218 460.821 144.858 461.062 144.75C461.91 144.371 463.812 145.041 464.812 144.75L465.469 144.469L466.031 144.656C466.855 144.303 466.483 144.497 467.156 144.094C466.531 144.048 466.079 143.987 465.469 143.811L468.13 143.547C454.986 142.79 441.479 143.357 428.292 143.346L337.02 143.734L277.14 143.739C266.009 143.717 254.76 142.658 243.696 144.312C234.468 145.692 225.634 148.988 217.633 153.757C215.287 155.155 212.653 156.652 210.584 158.434L210.313 158.736ZM344.412 289.416L295.035 294.109C288.257 295.096 279.791 295.606 273.907 299.329C270.851 307.436 269.535 316.431 267.805 324.931L259.267 370.47L257.416 383.945C257.164 385.903 257.108 388.27 256.48 390.127C256.462 393.993 256.026 398.885 258.667 402.061C260.285 404.008 262.253 404.814 264.75 404.963C277.201 405.702 289.908 404.78 302.385 404.798L389.701 404.796L466.454 405.048L486.746 404.863C492.136 404.861 497.61 405.088 502.986 404.725C505.285 404.57 507.347 404.102 509.05 402.431C511.159 400.362 511.507 397.455 511.537 394.667C511.608 388.025 510.333 381.307 509.232 374.77L504.034 346.5L497.897 315.953C496.916 311.625 496.121 307.09 494.672 302.895C494.088 301.203 493.041 299.649 491.759 298.406C490.636 297.318 489.124 296.901 487.663 296.453C482.421 294.843 476.759 294.475 471.332 293.788C439.937 289.818 408.246 288.316 376.597 288.486L344.412 289.416ZM371.098 266.096C347.861 266.449 324.803 269.108 301.727 271.68C289.93 272.995 277.428 273.653 265.969 276.896C260.902 278.33 256.279 280.332 252.565 284.14C248.047 288.771 246.798 295.379 245.547 301.5L241.637 320.304C240.197 327.841 239.31 335.481 235.744 342.418C233.97 345.869 231.496 348.891 229.019 351.858C226.286 355.132 223.347 358.292 219.813 360.715C219.986 353.87 219.133 346.256 220.158 339.531C222.291 339.508 224.876 339.664 226.456 338.03C227.527 336.923 228.079 335.345 228.069 333.814C228.056 331.774 227.016 329.788 225.562 328.394C223.321 326.244 219.489 325.884 216.523 326.04C213.836 326.182 211.302 326.709 209.447 328.815C207.094 331.487 207.279 336.385 207.248 339.744L207.225 350.113C207.213 354.544 206.937 359.204 207.307 363.611C207.518 366.121 209.068 368.591 211.045 370.123C213.678 372.163 218.058 372.506 221.273 371.923C226.212 371.027 230.593 366.532 233.583 362.773L232.476 413.062C232.35 420.111 231.55 427.268 232.507 434.285L232.863 434.646C233.49 435.248 234.319 435.881 235.186 436.044C238.565 436.678 243.006 436.179 246.472 436.172L273.122 436.12L273.318 435.791L273.491 424.491C273.505 422.045 273.633 419.574 273.016 417.188C271.293 416.268 268.661 416.62 266.722 416.624L252.592 416.667C250.521 416.663 247.812 416.906 245.831 416.401L245.286 416.251C247.547 415.351 250.837 415.933 253.314 415.781L253.031 414.844L252.562 415.309C252.173 414.832 252.015 414.729 251.404 414.526L250.877 414.373L250.691 413.812L249.375 413.809C248.641 413.321 248.917 413.637 248.533 412.875L249.377 411.752C249.968 411.569 250.507 411.386 251.063 411.108L252.752 410.252C252.972 409.596 252.839 409.799 253.227 409.303C253.726 408.665 254.202 408.137 254.569 407.403C254.986 406.571 254.624 407.152 255.192 406.301L255.566 405.75C256.051 404.98 256.466 404.382 257.062 403.691L257.344 404.156C258.187 403.926 258.237 404.083 258.75 403.312C257.833 402.497 257.225 401.613 256.926 400.414L256.875 400.125L256.502 399.748L256.5 399.188L255.941 398.812C256.203 398.099 256.154 397.106 255.941 396.375C255.455 394.703 255.624 392.472 256.227 390.799L256.48 390.127C257.108 388.27 257.164 385.903 257.416 383.945L259.267 370.47L267.805 324.931C269.535 316.431 270.851 307.436 273.907 299.329C279.791 295.606 288.257 295.096 295.035 294.109L344.412 289.416C343.567 289.172 343.925 289.228 343.022 289.165C342.23 289.11 342.534 289.29 342.094 288.844L347.25 288.658L354.188 288.75L354.375 288.559L353.531 288.094L353.062 288.559C352.251 287.951 352.216 287.741 351.844 286.781L351.188 286.875L350.816 286.125L351.188 285.566L350.816 285.188L352.875 283.316L353.441 282.938L353.252 281.998L352.127 281.623L351.941 280.875L352.688 279.941L354.188 279.941C354.911 279.217 355.504 279.816 356.413 279.204L356.189 278.688C356.633 278.791 356.449 278.713 356.877 278.975L357.192 279.176L358.406 279.186C359.007 279.307 358.878 279.349 359.531 279.186L359.906 279.373L360.562 279.184L360.938 279.559L364.125 279.533L364.5 279.188L365.25 279.184L365.809 278.812C367.308 278.87 368.434 278.805 369.858 278.314C372.346 278.067 375.189 278.451 377.701 278.543L395.812 279.249C422.192 280.171 448.632 280.561 474.812 284.108C482.753 285.184 492.115 286.131 499.315 289.788C501.995 291.149 504.14 292.356 505.89 294.92C509.752 300.577 510.476 309.374 511.659 316.012L514.336 330.355C517.871 350.18 522.027 370.257 523.347 390.375C523.899 398.79 523.986 408.166 522.33 416.433L504.993 416.606C502.112 416.611 498.504 416.211 495.75 417.019C494.846 417.803 494.709 418.102 494.392 419.276C494.047 420.55 494.186 422.14 494.18 423.453C494.166 426.466 494.112 429.531 494.304 432.535C494.378 433.693 494.364 435.522 494.964 436.508L519.083 436.785C522.989 436.815 527.259 437.174 531.122 436.755C532.06 436.654 532.686 436.215 533.438 435.7C534.034 434.697 534.701 433.654 534.823 432.47C535.419 426.699 534.509 420.249 534.439 414.39L533.535 363.07C537.493 366.911 541.699 371.389 547.582 371.597C551.025 371.719 554.085 370.864 556.572 368.345C561.401 363.455 560.522 354.123 560.456 347.777C560.406 342.861 561.302 332.087 557.399 328.544C555.032 326.395 550.718 325.984 547.686 326.206C545.113 326.394 542.564 327.33 540.938 329.424C539.837 330.841 539.806 332.797 540.069 334.509C540.36 336.409 541.325 337.83 542.812 338.985C544.648 339.419 546.173 339.184 548.01 338.947L547.934 351.375C547.939 353.63 548.171 356.15 547.495 358.312L546.75 358.488C543.64 357.761 541.383 355.269 539.17 353.1C535.328 349.334 532.339 345.378 530.2 340.434C527.715 334.692 527.05 328.185 525.904 322.078L522.486 305.122C521.072 297.952 519.967 289.614 514.626 284.142C512.717 282.187 510.14 280.515 507.584 279.542C502.421 277.579 496.85 276.431 491.438 275.382L460.818 270.98L414.058 266.719L371.098 266.096ZM240.5 450.158C235.755 450.514 231.825 450.992 228.472 454.804C227.068 456.401 225.785 458.292 225.114 460.319C222.58 467.97 223.466 476.826 223.534 484.794C223.57 489.009 223.335 493.385 223.685 497.572C224.526 507.655 228.037 513.975 235.725 520.391C240.027 523.981 245.763 526.222 251.309 526.806C256.995 527.405 262.679 527.26 268.389 527.266L291.79 527.28L374.829 527.069L472.875 526.804L498.208 526.827C503.451 526.858 508.709 527.144 513.942 526.639C522.144 525.847 529.856 521.928 535.004 515.466C537.151 512.77 538.9 508.999 539.748 505.66C541.865 497.32 541.393 487.312 541.415 478.749C541.425 474.674 541.766 470.544 541.267 466.488C540.664 461.587 539.614 457.113 535.548 453.838C530.842 450.045 523.27 450.378 517.566 450.199L502.02 450.063C499.477 450.237 496.643 450.237 494.208 451.045C493.114 456.284 493.127 462.224 495.278 467.155L514.875 467.343C518.06 467.35 523.478 466.626 526.082 468.562C528.216 472.26 527.46 496.839 526.111 501.72C525.008 505.712 522.704 509.196 519.052 511.288C514.547 513.869 507.829 513.567 502.726 513.723L489.775 513.507L359.954 513.475L291.896 513.556L269.678 513.622C263.12 513.658 255.762 514.434 249.398 512.55C245.861 511.503 242.356 508.974 240.616 505.686C239.699 503.952 239.089 502.103 238.803 500.164C237.944 494.341 238.514 487.78 238.492 481.875C238.476 477.641 237.855 472.64 238.779 468.562C240.097 467.206 241.492 467.328 243.264 467.305L262.997 467.304C265.538 467.309 270.168 467.914 272.353 466.688C274.186 463.639 273.878 455.055 272.971 451.595C272.852 451.141 272.841 450.75 272.41 450.506C271.769 450.143 271.066 450.093 270.345 450.052C266.717 449.843 262.931 450.328 259.273 450.312L245.579 450.035C243.993 450.049 242.038 449.88 240.5 450.158ZM289.204 416.824L287.988 417.188C286.049 421.469 286.162 424.714 286.351 429.334C286.437 431.437 286.371 433.554 287.066 435.562C288.091 436.067 288.903 436.326 290.049 436.392C297.04 436.794 304.245 436.393 311.266 436.393L352.528 436.5L477.469 436.479L479.888 436.374C480.363 434.28 480.132 431.672 480.141 429.5C480.158 425.504 480.33 421.406 479.759 417.442C478.43 416.894 476.742 416.791 475.312 416.748L438.223 416.73L364.233 416.766L313.541 416.616C305.446 416.622 297.282 416.29 289.204 416.824ZM291.227 449.776L287.386 450.188C285.523 452.559 286.449 461.153 286.829 464.16C287.017 465.644 287.418 467.008 287.961 468.399L477.094 468.78C477.758 468.57 478.591 468.516 478.937 467.881C479.849 466.204 479.859 464.279 479.913 462.417C480.029 458.474 479.742 454.484 479.533 450.545L291.227 449.776ZM295.378 481.663C293.188 481.82 290.984 481.844 288.938 482.716C286.12 486.292 286.098 490.795 286.632 495.152C286.828 496.747 287.516 499.069 288.638 500.249L471.406 500.574C473.523 500.555 476.897 500.996 478.688 499.993C480.024 496.896 479.534 493.201 479.479 489.888C479.447 487.922 479.603 485.771 478.827 483.924L478.416 483.108C475.005 482.132 471.244 482.327 467.728 482.318L453.513 482.297L412.554 482.244L344.517 481.933L310.297 481.73C305.331 481.727 300.335 481.35 295.378 481.663ZM228.797 539.056C226.384 539.114 222.358 538.704 220.511 540.535C219.418 541.618 218.54 543.689 218.668 545.25C218.826 547.181 219.837 549.247 221.353 550.468C222.458 551.358 223.893 551.817 225.292 551.967C232.105 552.697 239.517 552.149 246.382 552.162L293.518 552.518C295.948 552.317 299.509 552.322 301.312 550.433C302.996 548.67 303.292 546.082 303.037 543.756C302.89 542.416 302.536 541.336 301.506 540.399C300.51 539.493 299.069 539.4 297.789 539.278C290.251 538.559 282.271 539.052 274.675 539.034L228.797 539.056ZM464.871 539.713C462.66 541.058 461.525 542.047 460.776 544.594C460.476 545.614 461.565 548.653 462.125 549.548C462.79 550.612 463.656 551.519 464.917 551.82C468.192 552.602 472.381 552.335 475.773 552.392L497.313 552.531L524.058 552.517C529.82 552.505 535.7 552.67 541.442 552.188C543.674 550.991 544.786 549.462 545.451 546.996C545.973 545.062 545.436 543.358 544.393 541.708C543.798 540.765 543.072 540.131 541.973 539.922C539.071 539.368 535.549 539.719 532.569 539.721L513.255 539.749L479.804 539.61C474.86 539.616 469.802 539.404 464.871 539.713ZM257.289 479.02C254.055 480.05 251.697 481.28 250.011 484.391C248.548 487.093 248.369 490.541 249.256 493.466C250.246 496.731 251.693 498.612 254.73 500.167C257.894 501.787 261.171 501.673 264.633 501.378C268.168 500.223 270.518 498.748 272.182 495.358C273.587 492.495 274.053 488.641 272.972 485.613C272.062 483.065 269.711 481.143 267.284 480.121C264.29 478.861 260.477 478.543 257.289 479.02ZM502.497 479.262C499.595 480.292 496.472 481.585 495.031 484.522C493.318 488.015 493.717 492.135 495.018 495.699C495.915 498.156 498.017 499.894 500.402 500.832C502.93 501.826 505.947 501.587 508.601 501.263C512.053 499.651 514.78 497.76 516.256 494.063C517.481 490.996 517.542 487.268 515.99 484.312C514.674 481.808 512.52 480.238 509.836 479.549C507.502 478.95 504.882 479.1 502.497 479.262Z"/>
	<path fill="#010002" transform="scale(0.666667 0.666667)" d="M497.596 620.27L496.165 619.82L496.169 619.312C497.63 618.863 499.073 619.196 500.566 619.108C501.57 619.049 503.631 618.765 504.184 617.812C504.745 616.846 504.307 616.681 505.498 616.123C506.646 615.585 507.814 615.624 508.934 614.927L509.25 614.717L509.812 614.809L510.094 614.344L510.562 614.809C511.212 614.16 511.466 614 511.688 613.125L515.248 611.248C516.654 610.559 517.724 608.946 518.998 608.623L519 608.062C519.744 607.814 519.465 607.996 520.066 607.395L520.5 606.938C521.268 606.932 521.119 606.877 521.623 606.373L521.625 605.812C522.134 605.454 522.579 605.077 523.194 604.921L523.498 604.873C523.782 603.75 524.763 603.653 525.375 602.438L525.938 602.434L526.5 601.312L527.062 601.309L527.625 600.188L528.188 600.184L528.75 599.062L529.312 599.059L529.873 598.123L529.875 597.562L530.438 597.559L530.717 597L530.998 596.531L531 596.062L531.748 595.873L531.75 595.312L533.248 593.998L533.25 593.438L534.373 592.498C534.609 591.787 534.862 591.52 535.406 590.998L536.434 590.062L536.717 589.5L536.998 589.031L537 588.562L537.748 588.373L537.75 587.812L538.498 587.623C538.744 586.88 538.563 587.16 539.165 586.558L539.623 586.123L539.625 585.562L540.373 584.998L540.375 584.438L541.123 584.248L541.125 583.688L541.688 583.684L542.434 582.562L542.717 582L542.998 581.531L543 581.062C543.768 581.057 543.619 581.002 544.123 580.498L544.125 579.938L544.688 579.934L545.434 578.812L545.717 578.25L545.998 577.781L546 577.312C546.768 577.307 546.619 577.252 547.123 576.748L547.125 576.188L547.688 576.184L548.364 575.214L548.623 574.873L548.625 574.312L549.373 573.748C549.522 573.198 549.608 573.016 550.048 572.623C551.084 571.7 551.926 570.747 552.748 569.623L552.75 569.062L554.623 567.373C554.626 566.481 555.319 566.461 555.562 565.5L556.684 564.938L556.5 564.188C557.268 564.182 557.119 564.127 557.623 563.623C557.626 562.731 558.319 562.711 558.562 561.75L559.684 561.188L559.5 560.438L560.248 560.248L560.25 559.688L561.373 558.748L561.375 558.188L562.309 557.438C562.688 556.957 562.42 556.896 562.875 556.592L563.434 556.312L563.25 555.562C564.018 555.557 563.869 555.502 564.373 554.998L564.375 554.438L564.938 553.875C565.114 553.667 565.263 553.375 565.5 553.217C566.207 552.745 566.18 552.737 566.623 551.998L566.625 551.438C567.444 551.432 567.381 551.24 567.934 550.688L567.75 549.938L569.248 548.623L569.25 548.062L569.998 547.498L570 546.938L571.123 545.998L571.125 545.438L572.248 544.498L572.25 543.938L572.998 543.281L573 542.812L573.748 542.623L573.75 542.062L574.312 542.059L575.059 541.312L575.342 540.75L575.998 539.623L576 539.062L576.562 539.059L577.239 538.089L577.498 537.748L577.592 537L577.873 536.531L577.875 536.062L578.623 535.498L578.625 534.938L579.748 533.998L579.842 533.25L580.123 532.781C580.127 531.813 580.893 532.172 581.059 531.188L581.062 530.625C581.671 529.808 582.11 528.987 582.373 527.998C582.517 527.456 582.494 527.305 582.853 526.827L583.123 526.498L583.217 525.75L583.873 524.623L584.434 523.125C584.856 522.366 584.809 522.543 584.811 521.719C585.381 521.255 585.728 520.966 586.064 520.294C586.546 519.328 586.035 520.161 586.684 519.188L586.847 520.294L587.547 520.436L587.097 542.883C586.875 548.52 586.693 554.492 585.774 560.062C583.184 575.758 576.372 590.982 565.118 602.365C557.215 610.359 545.677 617.287 534.463 619.16C528.638 620.133 521.743 620.199 515.812 620.197L497.596 620.27Z"/>
	<path fill="#3E1061" transform="scale(0.666667 0.666667)" d="M340.728 279.351C343.193 278.787 346.042 278.787 348.569 278.6C355.729 278.07 362.683 277.938 369.858 278.314C368.434 278.805 367.308 278.87 365.809 278.812L365.25 279.184L364.5 279.188L364.125 279.533L360.938 279.559L360.562 279.184L359.906 279.373L359.531 279.186C358.878 279.349 359.007 279.307 358.406 279.186L357.192 279.176L356.877 278.975C356.449 278.713 356.633 278.791 356.189 278.688C355.264 278.667 354.579 278.625 353.705 278.956C352.351 279.467 351.005 278.9 349.609 279.344C348.362 279.741 347.043 279.387 345.75 279.376C344.043 279.361 342.427 279.668 340.728 279.351Z"/>
	<path fill="#67268F" transform="scale(0.666667 0.666667)" d="M340.728 279.351C342.427 279.668 344.043 279.361 345.75 279.376C347.043 279.387 348.362 279.741 349.609 279.344C351.005 278.9 352.351 279.467 353.705 278.956C354.579 278.625 355.264 278.667 356.189 278.688L356.413 279.204C355.504 279.816 354.911 279.217 354.188 279.941L352.688 279.941L351.941 280.875L352.127 281.623L353.252 281.998L353.441 282.938L352.875 283.316L350.816 285.188L351.188 285.566L350.816 286.125L351.188 286.875L351.844 286.781C352.216 287.741 352.251 287.951 353.062 288.559L353.531 288.094L354.375 288.559L354.188 288.75L347.25 288.658L342.094 288.844C342.534 289.29 342.23 289.11 343.022 289.165C343.925 289.228 343.567 289.172 344.412 289.416L295.035 294.109C288.257 295.096 279.791 295.606 273.907 299.329C270.851 307.436 269.535 316.431 267.805 324.931L259.267 370.47L257.416 383.945C257.164 385.903 257.108 388.27 256.48 390.127L256.227 390.799C255.624 392.472 255.455 394.703 255.941 396.375C256.154 397.106 256.203 398.099 255.941 398.812L256.5 399.188L256.502 399.748L256.875 400.125L256.926 400.414C257.225 401.613 257.833 402.497 258.75 403.312C258.237 404.083 258.187 403.926 257.344 404.156L257.062 403.691C256.466 404.382 256.051 404.98 255.566 405.75L255.192 406.301C254.624 407.152 254.986 406.571 254.569 407.403C254.202 408.137 253.726 408.665 253.227 409.303C252.839 409.799 252.972 409.596 252.752 410.252L251.063 411.108C250.507 411.386 249.968 411.569 249.377 411.752L248.533 412.875C248.917 413.637 248.641 413.321 249.375 413.809L250.691 413.812L250.877 414.373L251.404 414.526C252.015 414.729 252.173 414.832 252.562 415.309L253.031 414.844L253.314 415.781C250.837 415.933 247.547 415.351 245.286 416.251C244.529 415.125 244.618 413.8 244.437 412.5C243.9 408.662 243.538 404.914 243.5 401.035C243.318 382.376 247.414 363.578 250.383 345.239C252.756 330.583 254.384 315.012 259.054 300.887C259.958 298.154 260.969 295.504 263.071 293.449C271.344 285.358 306.575 283.354 318.938 281.899C326.046 281.062 333.595 279.38 340.728 279.351Z"/>
	<defs>
		<linearGradient id="gradient_1" gradientUnits="userSpaceOnUse" x1="395.039" y1="430.21899" x2="358.172" y2="278.32001">
			<stop offset="0" stop-color="white" stop-opacity="0"/>
			<stop offset="1" stop-color="white" stop-opacity="0.10980392"/>
		</linearGradient>
	</defs>
	<path fill="url(#gradient_1)" transform="scale(0.666667 0.666667)" d="M344.412 289.416L376.597 288.486C408.246 288.316 439.937 289.818 471.332 293.788C476.759 294.475 482.421 294.843 487.663 296.453C489.124 296.901 490.636 297.318 491.759 298.406C493.041 299.649 494.088 301.203 494.672 302.895C496.121 307.09 496.916 311.625 497.897 315.953L504.034 346.5L509.232 374.77C510.333 381.307 511.608 388.025 511.537 394.667C511.507 397.455 511.159 400.362 509.05 402.431C507.347 404.102 505.285 404.57 502.986 404.725C497.61 405.088 492.136 404.861 486.746 404.863L466.454 405.048L389.701 404.796L302.385 404.798C289.908 404.78 277.201 405.702 264.75 404.963C262.253 404.814 260.285 404.008 258.667 402.061C256.026 398.885 256.462 393.993 256.48 390.127C257.108 388.27 257.164 385.903 257.416 383.945L259.267 370.47L267.805 324.931C269.535 316.431 270.851 307.436 273.907 299.329C279.791 295.606 288.257 295.096 295.035 294.109L344.412 289.416ZM372.191 398.062C374.869 399.511 377.725 399.591 380.645 400.023L382.143 400.024L382.718 400.169C384.336 400.524 387.23 400.515 388.781 399.936L389.503 400.107L390.39 400.019L391.875 400.055L392.156 400.781L378.188 400.875L378.188 401.131C380.107 401.168 381.681 401.197 383.529 401.701C385.267 402.175 388.451 401.742 390.375 401.812L388.5 402.188C393.016 402.622 398.058 403.049 402.562 402.412C404.507 402.137 406.343 402.257 408.274 401.738C410.688 401.088 413.204 401.169 415.688 401.13L416.542 400.961L405.188 400.875L405.198 400.332C407.547 400.342 410.191 400.682 412.312 399.559L413.003 400.14L413.513 399.849C414.331 399.448 414.637 399.559 415.508 399.56L417.48 399.43L418.086 398.661C417.442 398.155 416.415 398.109 415.594 398.344L414.938 398.625C414.178 398.811 412.6 398.588 411.844 398.344L411.188 398.625L410.625 398.25C409.48 398.708 409.307 398.114 408.434 398.332L408 398.438L407.604 398.543C406.029 398.858 402.299 398.062 401.062 398.625C400.072 399.076 401.147 399.434 399.469 399.281L399 398.625C397.725 399.645 397.037 399.375 395.438 399.375L394.875 398.625C392.471 398.643 387.116 399.34 385.125 398.25L384.782 398.438C383.366 399.004 381.623 398.617 380.25 398.25L378.889 398.173C378.53 398.161 378.175 398.09 377.816 398.062L377.25 398.062L376.312 397.875L375.75 398.25C375.209 398.216 374.848 398.168 374.338 397.998C373.643 397.766 372.899 397.956 372.191 398.062Z"/>
	<defs>
		<linearGradient id="gradient_2" gradientUnits="userSpaceOnUse" x1="397.68799" y1="400.50101" x2="397.68701" y2="399.37299">
			<stop offset="0" stop-color="white" stop-opacity="0.074509807"/>
			<stop offset="1" stop-color="white" stop-opacity="0.10588235"/>
		</linearGradient>
	</defs>
	<path fill="url(#gradient_2)" transform="scale(0.666667 0.666667)" d="M372.191 398.062C372.899 397.956 373.643 397.766 374.338 397.998C374.848 398.168 375.209 398.216 375.75 398.25L376.312 397.875L377.25 398.062L377.816 398.062C378.175 398.09 378.53 398.161 378.889 398.173L380.25 398.25C381.623 398.617 383.366 399.004 384.782 398.438L385.125 398.25C387.116 399.34 392.471 398.643 394.875 398.625L395.438 399.375C397.037 399.375 397.725 399.645 399 398.625L399.469 399.281C401.147 399.434 400.072 399.076 401.062 398.625C402.299 398.062 406.029 398.858 407.604 398.543L408 398.438L408.434 398.332C409.307 398.114 409.48 398.708 410.625 398.25L411.188 398.625L411.844 398.344C412.6 398.588 414.178 398.811 414.938 398.625L415.594 398.344C416.415 398.109 417.442 398.155 418.086 398.661L417.48 399.43L415.508 399.56C414.637 399.559 414.331 399.448 413.513 399.849L413.003 400.14L412.312 399.559C410.191 400.682 407.547 400.342 405.198 400.332L405.188 400.875L416.542 400.961L415.688 401.13C413.204 401.169 410.688 401.088 408.274 401.738C406.343 402.257 404.507 402.137 402.562 402.412C398.058 403.049 393.016 402.622 388.5 402.188L390.375 401.812C388.451 401.742 385.267 402.175 383.529 401.701C381.681 401.197 380.107 401.168 378.188 401.131L378.188 400.875L392.156 400.781L391.875 400.055L390.39 400.019L389.503 400.107L388.781 399.936C387.23 400.515 384.336 400.524 382.718 400.169L382.143 400.024L380.645 400.023C377.725 399.591 374.869 399.511 372.191 398.062Z"/>
	<path fill="#180B2B" transform="scale(0.666667 0.666667)" d="M423.649 358.375L489.938 358.708C488.41 360.037 444.567 367.644 438.546 368.41C432.116 369.227 425.589 369.35 419.13 369.827L420.938 366.371C422.38 363.475 421.508 360.97 423.649 358.375Z"/>
	<path fill="#3E1061" transform="scale(0.666667 0.666667)" d="M419.13 369.827C412.804 370.52 406.509 370.609 400.159 370.881C396.603 371.034 393.078 371.54 389.514 371.593L369.356 370.953C344.925 369.889 321.121 366.879 297.098 362.395L285.797 360.261C283.6 359.902 281.29 359.893 279.165 359.274C284.335 357.912 290.926 358.245 296.275 358.234L321.979 358.284L406.507 358.356L423.649 358.375C421.508 360.97 422.38 363.475 420.938 366.371L419.13 369.827Z"/>
	<defs>
		<linearGradient id="gradient_3" gradientUnits="userSpaceOnUse" x1="329.40302" y1="324.65399" x2="174.202" y2="202.76801">
			<stop offset="0" stop-color="#5B227F"/>
			<stop offset="1" stop-color="#8D34C4"/>
		</linearGradient>
	</defs>
	<path fill="url(#gradient_3)" transform="scale(0.666667 0.666667)" d="M210.313 158.736L210.584 158.434C212.653 156.652 215.287 155.155 217.633 153.757C225.634 148.988 234.468 145.692 243.696 144.312C254.76 142.658 266.009 143.717 277.14 143.739L337.02 143.734L428.292 143.346C441.479 143.357 454.986 142.79 468.13 143.547L465.469 143.811C466.079 143.987 466.531 144.048 467.156 144.094C466.483 144.497 466.855 144.303 466.031 144.656L465.469 144.469L464.812 144.75C463.812 145.041 461.91 144.371 461.062 144.75C460.821 144.858 460.748 145.218 460.5 145.309C459.774 145.576 459.244 144.866 458.344 145.406L457.688 145.125L457.219 145.781L457.875 146.625C457.361 147.643 456.592 148.43 456.116 149.426C455.635 150.436 454.574 151.287 453.794 152.074C452.075 153.807 450.43 155.722 448.406 157.031C447.675 157.504 447.509 158.048 447.094 158.719C446.543 159.608 445.738 159.93 445.219 160.969L441.656 165.656C440.981 166.491 440.367 167.308 439.605 168.07C438.659 169.018 439.526 168.055 438.844 169.219C438.447 169.894 437.794 170.327 437.344 171.094C436.947 171.769 436.294 172.202 435.844 172.969C435.409 173.711 434.787 173.958 434.344 174.844C433.428 176.675 430.951 179.347 429.48 180.82C428.439 181.864 429.501 180.706 428.719 181.969C428.157 182.875 427.323 183.132 426.844 184.219C426.502 184.993 426.082 185.333 425.507 185.907C424.986 186.428 425.494 185.948 424.969 186.844C424.607 187.461 423.903 188.047 423.469 188.719C422.826 189.713 421.861 190.239 421.219 191.344C420.157 193.17 418.416 195.215 416.93 196.727C416.43 197.237 416.74 196.926 416.344 197.719C415.936 198.534 415.12 199.304 414.48 199.945C413.438 200.989 414.501 199.831 413.719 201.094C413.197 201.937 412.394 202.398 411.844 203.344L411 204.375C410.033 205.533 409.173 206.751 408.105 207.82C407.159 208.768 408.026 207.805 407.344 208.969C406.945 209.649 406.294 210.069 405.844 210.844C405.326 211.733 404.455 212.481 403.883 213.378C403.38 214.17 402.696 214.718 402.04 215.375C401.247 216.167 401.958 215.413 401.344 216.469L396.328 222.879C395.663 223.692 396.126 223.097 395.619 223.893C395.182 224.58 394.649 225.015 394.083 225.582C393.435 226.229 394.038 225.616 393.469 226.594L390.281 230.906L389.625 231.938L389.25 232.5L389.168 232.852C388.973 233.631 388.469 234.062 388.125 234.75L388.043 235.102C387.864 235.819 387.406 236.391 387 237C386.935 237.981 386.996 238.681 386.25 239.438C385.996 239.695 385.614 239.819 385.312 240L384.75 240.375L384.41 240.457C383.836 240.6 383.4 240.858 382.875 241.125L381.75 241.688L382.031 242.156L382.406 241.969L382.312 242.625C382.312 242.945 382.571 243.447 382.688 243.75L383.625 243.938C384.001 244.814 383.982 244.368 383.677 245.276L406.216 245.261L443.822 248.26L494.121 253.677C498.597 254.373 504.237 254.72 508.312 256.764C510.551 259.847 509.742 266.518 509.478 270.207L474.75 263.26C452.357 259.771 429.494 258.748 406.869 258.116C399.171 257.901 391.141 256.953 383.48 257.336C382.558 257.574 381.669 257.801 380.719 257.906L382.031 258.094C381.429 258.455 381.745 258.374 381.094 258.377L380.625 258.75C379.273 258.743 377.659 258.559 376.383 258.984C375.532 259.268 374.668 259.229 373.781 259.219L372.844 259.781L372.469 259.594L372.404 260.197C372.305 260.894 372.185 261.181 371.812 261.75L371.344 261.469C370.65 261.909 369.959 262.291 369.375 262.875C369.85 263.35 370.082 263.379 370.688 263.625C371.5 263.954 371.134 263.767 371.666 264.146C372.047 264.419 372.299 264.475 372.75 264.562L372.094 265.031L371.719 264.844L370.875 265.5L370.254 265.408C369.275 265.272 368.298 265.3 367.312 265.316L367.312 265.704C368.545 265.727 369.954 265.614 371.098 266.096C347.861 266.449 324.803 269.108 301.727 271.68C289.93 272.995 277.428 273.653 265.969 276.896C260.902 278.33 256.279 280.332 252.565 284.14C248.047 288.771 246.798 295.379 245.547 301.5L241.637 320.304C240.197 327.841 239.31 335.481 235.744 342.418C233.97 345.869 231.496 348.891 229.019 351.858C226.286 355.132 223.347 358.292 219.813 360.715C219.986 353.87 219.133 346.256 220.158 339.531C222.291 339.508 224.876 339.664 226.456 338.03C227.527 336.923 228.079 335.345 228.069 333.814C228.056 331.774 227.016 329.788 225.562 328.394C223.321 326.244 219.489 325.884 216.523 326.04C213.836 326.182 211.302 326.709 209.447 328.815C207.094 331.487 207.279 336.385 207.248 339.744L207.225 350.113C207.213 354.544 206.937 359.204 207.307 363.611C207.518 366.121 209.068 368.591 211.045 370.123C213.678 372.163 218.058 372.506 221.273 371.923C226.212 371.027 230.593 366.532 233.583 362.773L232.476 413.062C232.35 420.111 231.55 427.268 232.507 434.285L231.561 433.969C230.785 434.651 230.498 434.973 229.969 435.844L229.541 436.354C229.123 436.864 229.02 436.998 228.938 437.625L228.486 438.053C227.859 438.68 228.069 438.402 227.719 439.219C225.094 440.695 223.405 441.37 221.719 444.094C221.229 444.885 220.396 445.49 219.844 446.344C219.174 447.379 218.125 447.742 217.594 448.969C217.211 449.851 216.624 450.29 215.964 450.95C215.297 451.617 215.928 450.972 215.344 451.969C214.965 452.614 214.287 453.127 213.844 453.844C213.324 454.683 212.519 455.155 211.969 456.094C211.534 456.836 210.912 457.083 210.469 457.969C210.051 458.805 209.34 459.577 208.5 459.938L208.219 460.594L207.375 461.625L206.965 462.141L205.98 463.195C205.048 464.13 205.887 463.194 205.219 464.344C204.693 465.248 203.801 466.004 203.221 466.916C202.916 467.395 202.681 467.637 202.289 468.023C201.131 469.166 202.272 467.921 201.469 469.219C200.947 470.062 200.144 470.523 199.594 471.469L198.75 472.5L195.656 476.531C193.379 479.307 192.031 482.795 189.955 485.701C189.698 486.061 189.645 486.323 189.562 486.75C188.506 487.775 187.499 488.5 187.096 489.979C186.939 490.555 186.753 490.805 186.375 491.25C186.312 491.942 186.398 492.1 185.965 492.656C185.568 493.166 185.582 493.296 185.438 493.875L185.248 494.531L184.594 494.344C184.202 494.838 184.057 495.13 183.938 495.75L182.985 495.938L183.018 496.362C183.083 497.257 183.208 497.925 182.809 498.75L182.496 499.423L181.928 499.944L181.868 484.477L181.861 454.765L182.101 354.135L182.32 256.079L182.349 225.818C182.355 219.617 182.183 213.348 182.634 207.16C183.11 200.642 184.816 192.927 187.967 187.133C191.689 176.472 201.382 165.414 210.313 158.736ZM383.677 245.276L339.702 245.779C319.052 246.744 298.208 249.814 277.795 252.965L265.351 254.901C262.512 255.404 259.729 255.792 257.271 257.438C255.567 260.347 255.959 267.279 256.545 270.629C261.613 270.011 266.538 268.717 271.549 267.765L298.576 263.024C306.859 261.649 315.398 261.154 323.748 260.347C343.497 258.438 363.622 256.627 383.48 257.336C391.141 256.953 399.171 257.901 406.869 258.116C429.494 258.748 452.357 259.771 474.75 263.26L509.478 270.207C509.742 266.518 510.551 259.847 508.312 256.764C504.237 254.72 498.597 254.373 494.121 253.677L443.822 248.26L406.216 245.261L383.677 245.276Z"/>
	<path fill="#67268F" transform="scale(0.666667 0.666667)" d="M210.313 158.736L211.309 159.562C210.601 160.301 210.455 160.397 209.623 160.873L208.5 161.809L208.096 162.058C207.123 162.708 206.05 163.912 205.383 164.884C204.19 166.62 202.198 168.046 200.691 169.5C200.008 170.159 199.122 171.443 198.748 172.289C198.507 172.833 198.155 173.055 197.73 173.441C197.055 174.054 196.644 174.797 196.219 175.594C195.439 177.053 194.337 178.172 193.547 179.625C193.16 180.337 192.66 180.939 192.293 181.675C191.843 182.577 191.188 183.414 190.684 184.312L190.377 184.815C189.968 185.497 189.781 186.18 189.559 186.938L189 187.217L188.361 187.741L187.967 187.133C191.689 176.472 201.382 165.414 210.313 158.736Z"/>
</svg>
